<svg width="3776" height="1402" viewBox="0 0 3776 1402" fill="none" xmlns="http://www.w3.org/2000/svg">
<g clip-path="url(#clip0_907_204)">
<path d="M1949.48 464.374L2129.12 452.765C2133.22 482.13 2140.74 503.982 2153.03 519.689C2172.84 544.274 2200.16 556.566 2236.36 556.566C2263 556.566 2284.18 550.42 2298.52 537.445C2312.19 527.201 2320.38 510.811 2320.38 493.739C2320.38 477.349 2312.87 461.642 2299.89 451.399C2286.23 439.107 2254.12 426.814 2203.58 415.888C2120.93 397.45 2061.5 372.865 2026.66 341.451C1991.83 312.087 1972.02 269.064 1973.38 223.309C1973.38 191.896 1982.95 160.482 2000.71 134.532C2021.2 105.167 2049.2 81.9483 2082.67 68.9731C2118.88 53.2664 2169.42 45.0715 2232.95 45.0715C2310.82 45.0715 2370.25 59.4125 2411.23 88.7773C2452.21 117.459 2476.8 163.897 2484.32 227.407L2306.72 237.65C2301.94 210.334 2292.38 190.53 2276.67 177.555C2260.95 164.58 2240.46 158.433 2213.82 158.433C2191.97 158.433 2175.57 163.214 2164.64 172.092C2154.4 180.286 2147.57 192.579 2148.25 206.237C2148.25 216.48 2153.71 226.041 2161.91 232.187C2170.79 240.382 2191.97 247.894 2225.44 254.723C2308.09 272.478 2366.83 290.234 2403.03 308.672C2439.24 327.111 2465.19 349.646 2480.9 376.28C2497.3 403.596 2505.49 435.009 2504.81 467.106C2504.81 505.348 2493.88 543.591 2472.02 575.687C2449.48 609.15 2418.06 635.1 2381.18 650.807C2342.24 667.879 2293.06 676.757 2234.32 676.757C2130.49 676.757 2058.77 656.953 2018.47 616.661C1978.16 576.37 1954.26 525.835 1949.48 464.374ZM43.0333 666.513V55.998H357.928C415.988 55.998 461.071 60.7783 491.809 71.0218C521.864 80.5825 548.504 100.387 566.263 127.02C586.072 156.385 595.635 190.53 594.952 226.041C597.001 286.136 566.263 343.5 513.667 373.548C493.175 385.157 470.634 393.352 447.41 397.45C464.486 402.23 481.563 410.425 496.59 419.985C508.203 429.546 517.766 440.472 526.645 452.082C536.891 463.691 545.771 476.666 553.285 490.324L644.816 667.196H430.333L329.239 479.398C316.26 455.496 305.331 439.789 295.085 432.278C281.424 422.717 265.03 417.937 248.637 417.937H232.243V665.83H43.0333V666.513ZM232.243 303.209H312.162C329.239 301.843 345.632 299.111 362.026 295.014C374.321 292.965 385.25 286.136 392.764 275.893C411.207 251.308 408.475 216.48 385.933 195.31C373.638 185.067 349.731 179.603 315.577 179.603H232.243V303.209ZM0 1189.62L179.647 1178.01C183.745 1207.37 191.259 1229.23 203.554 1244.93C222.68 1269.52 250.686 1282.49 286.889 1282.49C313.528 1282.49 334.703 1276.35 349.048 1263.37C362.709 1252.44 370.906 1236.74 370.906 1219.66C370.906 1203.28 363.392 1187.57 350.414 1177.32C336.753 1165.03 304.648 1152.74 253.418 1141.81C170.767 1123.38 111.34 1098.79 76.5036 1067.38C41.6671 1038.01 21.8582 994.99 23.2243 949.235C23.2243 917.822 32.7873 886.408 50.547 860.458C71.0391 831.093 99.0448 807.874 132.515 794.899C168.718 779.192 219.265 770.997 282.79 770.997C360.66 770.997 420.087 785.338 461.071 814.703C502.055 844.068 525.962 889.823 533.476 953.333L355.878 963.576C351.097 936.26 341.534 916.456 325.823 903.481C310.796 890.506 289.621 884.359 262.981 885.042C241.123 885.042 224.729 889.823 213.8 899.383C202.871 907.578 196.724 919.87 197.407 933.528C197.407 943.772 202.871 953.333 211.068 959.479C219.948 967.674 241.123 975.185 274.593 982.015C357.245 999.77 415.988 1017.53 452.191 1035.96C488.394 1054.4 514.35 1076.94 530.061 1103.57C546.454 1130.89 554.651 1162.3 554.651 1193.71C554.651 1231.96 543.039 1269.52 521.864 1301.61C499.323 1335.08 467.902 1361.03 431.016 1376.73C392.081 1393.81 342.9 1402.68 284.156 1402.68C180.33 1402.68 108.608 1382.88 68.3068 1342.59C28.0058 1301.61 5.46454 1251.08 0 1189.62Z" fill="#FF8A00"/>
<path d="M908.48 1141.81L1073.78 1191.67C1064.9 1233.32 1046.46 1272.93 1021.19 1307.76C997.962 1338.49 967.224 1362.39 932.388 1378.1C896.868 1393.81 851.786 1402 797.14 1402C730.883 1402 676.237 1392.44 634.57 1373.32C592.22 1354.2 556.017 1320.05 525.279 1271.57C494.541 1223.08 479.514 1160.94 479.514 1085.13C479.514 984.063 506.153 906.212 560.116 852.263C614.078 798.314 689.899 770.998 788.26 770.998C865.447 770.998 925.557 786.704 969.957 817.435C1013.67 848.848 1046.46 896.652 1068.32 960.845L901.65 997.721C897.551 983.38 891.404 969.039 883.207 956.747C872.961 942.406 859.983 931.48 844.272 923.285C828.561 915.09 810.802 911.676 793.042 911.676C750.009 911.676 717.221 928.748 694.68 963.576C677.603 988.844 668.724 1029.13 668.724 1083.77C668.724 1151.37 678.97 1197.81 699.462 1223.08C719.954 1248.35 748.642 1260.64 786.211 1260.64C822.414 1260.64 849.737 1250.4 868.179 1230.59C886.622 1209.42 900.284 1180.06 908.48 1141.81ZM1294.41 781.241H1482.94V994.99H1689.23V781.241H1879.12V1391.76H1689.23V1144.55H1482.94V1391.76H1294.41V781.241V781.241Z" fill="#FF8A00"/>
<path d="M1853.16 1086.5C1853.16 986.795 1881.17 908.944 1936.5 853.629C1991.83 798.314 2069.7 770.315 2168.74 770.315C2270.52 770.315 2348.39 797.631 2403.72 852.263C2459.04 906.895 2486.37 983.38 2486.37 1081.72C2486.37 1153.42 2474.07 1211.47 2450.17 1257.22C2426.94 1302.3 2390.74 1339.17 2346.34 1363.76C2300.57 1389.02 2243.88 1402 2176.25 1402C2107.27 1402 2050.57 1391.07 2005.49 1369.22C1959.04 1346 1920.79 1309.81 1895.51 1265.42C1867.51 1217.62 1853.16 1158.2 1853.16 1086.5ZM2041.69 1087.18C2041.69 1148.64 2053.3 1193.03 2075.84 1220.35C2098.39 1246.98 2129.81 1260.64 2169.42 1260.64C2209.73 1260.64 2241.15 1247.66 2263.69 1221.03C2286.23 1194.4 2297.16 1147.28 2297.16 1078.99C2297.16 1021.62 2285.55 979.283 2262.32 953.333C2239.1 926.7 2207.68 913.724 2168.06 913.724C2133.22 912.359 2099.75 927.382 2076.53 954.016C2053.3 980.649 2041.69 1025.04 2041.69 1087.18V1087.18ZM2679.68 1086.5C2679.68 986.795 2707.68 908.944 2763.01 853.629C2818.34 798.314 2896.21 770.315 2995.25 770.315C3097.03 770.315 3175.58 797.631 3230.23 852.263C3284.87 906.895 3312.88 983.38 3312.88 1081.72C3312.88 1153.42 3300.58 1211.47 3276.68 1257.22C3253.45 1302.3 3217.25 1339.17 3172.85 1363.76C3127.09 1389.02 3070.39 1402 3002.77 1402C2933.78 1402 2877.08 1391.07 2832 1369.22C2785.55 1346 2747.3 1309.81 2722.03 1265.42C2694.02 1217.62 2679.68 1158.2 2679.68 1086.5V1086.5ZM2868.2 1087.18C2868.2 1148.64 2879.81 1193.03 2902.36 1220.35C2924.9 1246.98 2956.32 1260.64 2995.94 1260.64C3036.24 1260.64 3067.66 1247.66 3090.2 1221.03C3112.74 1194.4 3123.67 1147.28 3123.67 1078.99C3123.67 1021.62 3112.06 979.283 3088.83 953.333C3065.61 926.7 3034.19 913.724 2994.57 913.724C2959.73 912.359 2925.58 927.382 2903.04 954.016C2879.81 980.649 2868.2 1025.04 2868.2 1087.18V1087.18Z" fill="#FF8A00"/>
<path d="M3293.07 781.241H3481.6V1241.52H3776V1391.76H3292.39V781.241H3293.07Z" fill="#FF8A00"/>
<path d="M3085.27 746.008C3275.08 603.008 3333.61 360.6 3216 204.575C3098.4 48.5498 2849.19 37.9907 2659.38 180.991C2469.58 323.99 2411.05 566.398 2528.65 722.423C2646.26 878.449 2895.47 889.008 3085.27 746.008Z" fill="white"/>
<path d="M3085.27 746.008C3275.08 603.008 3333.61 360.6 3216 204.575C3098.4 48.55 2849.19 37.991 2659.38 180.991C2469.58 323.991 2411.05 566.398 2528.65 722.424C2646.26 878.449 2895.47 889.008 3085.27 746.008Z" stroke="black" stroke-width="4" stroke-miterlimit="10"/>
<path d="M2680.36 418.62L2748.67 370.816L2832.68 490.324C2847.03 509.446 2857.96 529.933 2866.15 552.469C2870.94 569.541 2869.57 587.98 2862.74 604.369C2853.86 624.856 2839.51 641.929 2820.39 654.221C2797.85 669.928 2778.72 678.806 2762.33 681.537C2746.62 684.269 2730.22 681.537 2715.2 674.708C2698.8 666.513 2684.46 654.904 2673.53 639.88L2732.27 585.248C2737.05 592.76 2743.2 599.589 2750.03 605.052C2754.81 608.467 2760.28 610.515 2766.43 610.515C2771.21 610.515 2775.99 608.467 2779.4 605.735C2786.23 601.638 2791.02 593.443 2790.33 585.248C2788.28 573.639 2783.5 562.029 2775.99 553.152L2680.36 418.62V418.62ZM2885.28 494.422L2947.44 445.253C2954.27 453.448 2963.15 459.594 2972.71 463.008C2986.37 467.106 3000.72 464.374 3012.33 455.496C3020.53 450.033 3027.36 442.521 3030.09 432.961C3034.19 420.668 3027.36 407.01 3015.06 402.913C3013.01 402.23 3010.96 401.547 3008.91 401.547C3000.72 400.864 2986.37 404.279 2965.2 413.156C2930.36 427.497 2903.04 432.961 2882.55 430.912C2862.74 428.863 2844.3 418.62 2833.37 401.547C2825.17 389.938 2821.07 376.28 2820.39 362.622C2820.39 346.915 2824.49 331.208 2833.37 318.233C2846.34 299.795 2862.06 284.088 2881.18 271.795C2909.87 251.991 2935.14 242.431 2957 242.431C2978.86 242.431 2999.35 252.674 3018.48 273.844L2957 322.33C2944.71 306.624 2921.48 303.209 2905.77 315.501L2903.72 317.55C2896.89 321.647 2892.11 327.794 2889.38 335.305C2887.33 340.769 2888.69 346.915 2892.11 351.695C2894.84 355.11 2898.94 357.841 2903.72 357.841C2909.19 358.524 2918.75 355.793 2932.41 349.646C2966.56 335.305 2992.52 327.111 3010.28 324.379C3025.31 321.647 3041.02 323.013 3055.36 329.159C3068.34 334.623 3079.27 344.183 3086.78 355.793C3096.35 369.451 3101.81 385.84 3102.5 402.913C3103.18 420.668 3098.4 437.741 3088.83 452.765C3076.54 471.203 3060.83 486.91 3042.39 499.202C3004.82 525.153 2974.08 536.079 2949.49 531.982C2922.85 527.884 2900.99 514.226 2885.28 494.422V494.422Z" fill="#FF8A00"/>
</g>
<defs>
<clipPath id="clip0_907_204">
<rect width="3776" height="1402" fill="white"/>
</clipPath>
</defs>
</svg>
